<?xml version="1.0" encoding="UTF-8"?>
<!DOCTYPE svg PUBLIC "-//W3C//DTD SVG 1.1//EN" "http://www.w3.org/Graphics/SVG/1.1/DTD/svg11.dtd">
<svg version="1.2" width="90.19mm" height="90.16mm" viewBox="7630 10042 9019 9016" preserveAspectRatio="xMidYMid" fill-rule="evenodd" stroke-width="28.222" stroke-linejoin="round" xmlns="http://www.w3.org/2000/svg" xmlns:ooo="http://xml.openoffice.org/svg/export" xmlns:xlink="http://www.w3.org/1999/xlink" xmlns:presentation="http://sun.com/xmlns/staroffice/presentation" xmlns:smil="http://www.w3.org/2001/SMIL20/" xmlns:anim="urn:oasis:names:tc:opendocument:xmlns:animation:1.0" xml:space="preserve">
 <defs class="EmbeddedBulletChars">
  <g id="bullet-char-template-57356" transform="scale(0.00048828125,-0.00048828125)">
   <path d="M 580,1141 L 1163,571 580,0 -4,571 580,1141 Z"/>
  </g>
  <g id="bullet-char-template-57354" transform="scale(0.00048828125,-0.00048828125)">
   <path d="M 8,1128 L 1137,1128 1137,0 8,0 8,1128 Z"/>
  </g>
  <g id="bullet-char-template-10146" transform="scale(0.00048828125,-0.00048828125)">
   <path d="M 174,0 L 602,739 174,1481 1456,739 174,0 Z M 1358,739 L 309,1346 659,739 1358,739 Z"/>
  </g>
  <g id="bullet-char-template-10132" transform="scale(0.00048828125,-0.00048828125)">
   <path d="M 2015,739 L 1276,0 717,0 1260,543 174,543 174,936 1260,936 717,1481 1274,1481 2015,739 Z"/>
  </g>
  <g id="bullet-char-template-10007" transform="scale(0.00048828125,-0.00048828125)">
   <path d="M 0,-2 C -7,14 -16,27 -25,37 L 356,567 C 262,823 215,952 215,954 215,979 228,992 255,992 264,992 276,990 289,987 310,991 331,999 354,1012 L 381,999 492,748 772,1049 836,1024 860,1049 C 881,1039 901,1025 922,1006 886,937 835,863 770,784 769,783 710,716 594,584 L 774,223 C 774,196 753,168 711,139 L 727,119 C 717,90 699,76 672,76 641,76 570,178 457,381 L 164,-76 C 142,-110 111,-127 72,-127 30,-127 9,-110 8,-76 1,-67 -2,-52 -2,-32 -2,-23 -1,-13 0,-2 Z"/>
  </g>
  <g id="bullet-char-template-10004" transform="scale(0.00048828125,-0.00048828125)">
   <path d="M 285,-33 C 182,-33 111,30 74,156 52,228 41,333 41,471 41,549 55,616 82,672 116,743 169,778 240,778 293,778 328,747 346,684 L 369,508 C 377,444 397,411 428,410 L 1163,1116 C 1174,1127 1196,1133 1229,1133 1271,1133 1292,1118 1292,1087 L 1292,965 C 1292,929 1282,901 1262,881 L 442,47 C 390,-6 338,-33 285,-33 Z"/>
  </g>
  <g id="bullet-char-template-9679" transform="scale(0.00048828125,-0.00048828125)">
   <path d="M 813,0 C 632,0 489,54 383,161 276,268 223,411 223,592 223,773 276,916 383,1023 489,1130 632,1184 813,1184 992,1184 1136,1130 1245,1023 1353,916 1407,772 1407,592 1407,412 1353,268 1245,161 1136,54 992,0 813,0 Z"/>
  </g>
  <g id="bullet-char-template-8226" transform="scale(0.00048828125,-0.00048828125)">
   <path d="M 346,457 C 273,457 209,483 155,535 101,586 74,649 74,723 74,796 101,859 155,911 209,963 273,989 346,989 419,989 480,963 531,910 582,859 608,796 608,723 608,648 583,586 532,535 482,483 420,457 346,457 Z"/>
  </g>
  <g id="bullet-char-template-8211" transform="scale(0.00048828125,-0.00048828125)">
   <path d="M -4,459 L 1135,459 1135,606 -4,606 -4,459 Z"/>
  </g>
  <g id="bullet-char-template-61548" transform="scale(0.00048828125,-0.00048828125)">
   <path d="M 173,740 C 173,903 231,1043 346,1159 462,1274 601,1332 765,1332 928,1332 1067,1274 1183,1159 1299,1043 1357,903 1357,740 1357,577 1299,437 1183,322 1067,206 928,148 765,148 601,148 462,206 346,322 231,437 173,577 173,740 Z"/>
  </g>
 </defs>
 <g class="Page">
  <g class="com.sun.star.drawing.ClosedBezierShape">
   <g id="id3">
    <rect class="BoundingBox" stroke="none" fill="none" x="7630" y="10042" width="9019" height="9016"/>
    <path fill="#bdbebe" stroke="none" d="M 16634,14857 C 16625,14947 16617,15037 16608,15128 16607,15135 16606,15143 16605,15150 16590,15240 16575,15329 16560,15418 16559,15426 16557,15433 16556,15441 16535,15529 16515,15617 16494,15705 16492,15712 16490,15720 16488,15727 16462,15814 16436,15900 16410,15987 16407,15994 16405,16001 16402,16009 16370,16093 16338,16178 16307,16263 L 16298,16284 C 16260,16366 16223,16449 16186,16532 16182,16539 16179,16546 16175,16552 16132,16633 16090,16713 16047,16793 16045,16796 16043,16800 16041,16803 16039,16807 16037,16810 16035,16813 15987,16890 15939,16968 15891,17045 15887,17051 15882,17058 15878,17064 15825,17138 15772,17212 15720,17285 15715,17291 15710,17297 15706,17304 15648,17373 15591,17443 15533,17513 L 15518,17531 C 15456,17597 15395,17663 15333,17729 15327,17734 15322,17739 15317,17745 15251,17807 15185,17868 15119,17930 L 15101,17945 C 15031,18003 14961,18060 14892,18118 14885,18122 14879,18127 14873,18132 14800,18184 14726,18237 14652,18290 14646,18294 14639,18299 14633,18303 14556,18351 14478,18399 14401,18447 14398,18449 14395,18451 14391,18453 14388,18455 14384,18457 14381,18459 14301,18502 14221,18544 14140,18587 14134,18591 14127,18594 14120,18598 14037,18635 13954,18672 13872,18710 L 13851,18719 C 13766,18750 13681,18782 13597,18814 13589,18817 13582,18819 13575,18822 13488,18848 13402,18874 13315,18900 13308,18902 13300,18904 13293,18906 13205,18927 13117,18947 13029,18968 13021,18969 13014,18971 13006,18972 12917,18987 12828,19002 12738,19017 12731,19018 12723,19019 12716,19020 12625,19029 12535,19037 12445,19046 12437,19047 12430,19047 12422,19048 L 12149,19057 12138,19057 12126,19057 11853,19048 C 11845,19047 11838,19047 11830,19046 11740,19037 11650,19029 11559,19020 11552,19019 11544,19018 11537,19017 11447,19002 11358,18987 11269,18972 11261,18971 11254,18969 11246,18968 11158,18947 11070,18927 10982,18906 10975,18904 10967,18902 10960,18900 10873,18874 10787,18848 10700,18822 10693,18819 10686,18817 10678,18814 10594,18782 10509,18750 10424,18719 L 10403,18710 C 10321,18672 10238,18635 10155,18598 10148,18594 10141,18591 10135,18587 10054,18544 9974,18502 9894,18459 9891,18457 9887,18455 9884,18453 9880,18451 9877,18449 9874,18447 9797,18399 9719,18351 9642,18303 9636,18299 9629,18294 9623,18290 9549,18237 9475,18184 9402,18132 9396,18127 9390,18122 9383,18118 9314,18060 9244,18003 9174,17945 L 9156,17930 C 9090,17868 9024,17807 8958,17745 8953,17739 8948,17734 8942,17729 8880,17663 8819,17597 8757,17531 L 8742,17513 C 8684,17443 8627,17373 8569,17304 8565,17297 8560,17291 8555,17285 8503,17212 8450,17138 8397,17064 8393,17058 8388,17051 8384,17045 8336,16968 8288,16890 8240,16813 8238,16810 8236,16807 8234,16803 8232,16800 8230,16796 8228,16793 8185,16713 8143,16633 8100,16552 8096,16546 8093,16539 8089,16532 8052,16449 8015,16366 7977,16284 L 7968,16263 C 7937,16178 7905,16093 7873,16009 7870,16001 7868,15994 7865,15987 7839,15900 7813,15814 7787,15727 7785,15720 7783,15712 7781,15705 7760,15617 7740,15529 7719,15441 7718,15433 7716,15426 7715,15418 7700,15329 7685,15240 7670,15150 7669,15143 7668,15135 7667,15128 7658,15037 7650,14947 7641,14857 7640,14849 7640,14842 7639,14834 L 7630,14561 7630,14550 7630,14538 7639,14265 C 7640,14257 7640,14250 7641,14242 7650,14152 7658,14062 7667,13971 7668,13964 7669,13956 7670,13949 7685,13859 7700,13770 7715,13681 7716,13673 7718,13666 7719,13658 7740,13570 7760,13482 7781,13394 7783,13387 7785,13379 7787,13372 7813,13285 7839,13199 7865,13112 7868,13105 7870,13098 7873,13090 7905,13006 7937,12921 7968,12836 L 7977,12815 C 8015,12733 8052,12650 8089,12567 8093,12560 8096,12553 8100,12547 8143,12466 8185,12386 8228,12306 8230,12303 8232,12299 8234,12296 8236,12292 8238,12289 8240,12286 8288,12209 8336,12131 8384,12054 8388,12048 8393,12041 8397,12035 8450,11961 8503,11887 8555,11814 8560,11808 8565,11802 8569,11795 8627,11726 8684,11656 8742,11586 L 8757,11568 C 8819,11502 8880,11436 8942,11370 8948,11365 8953,11360 8958,11354 9024,11292 9090,11231 9156,11169 L 9174,11154 C 9244,11096 9314,11039 9383,10981 9390,10977 9396,10972 9402,10967 9475,10915 9549,10862 9623,10809 9629,10805 9636,10800 9642,10796 9719,10748 9797,10700 9874,10652 9877,10650 9880,10648 9884,10646 9887,10644 9891,10642 9894,10640 9974,10597 10054,10555 10135,10512 10141,10508 10148,10505 10155,10501 10238,10464 10321,10427 10403,10389 L 10424,10380 C 10509,10349 10594,10317 10678,10285 10686,10282 10693,10280 10700,10277 10787,10251 10873,10225 10960,10199 10967,10197 10975,10195 10982,10193 11070,10172 11158,10152 11246,10131 11254,10130 11261,10128 11269,10127 11358,10112 11447,10097 11537,10082 11544,10081 11552,10080 11559,10079 11650,10070 11740,10062 11830,10053 11838,10052 11845,10052 11853,10051 L 12126,10042 12137,10042 12149,10042 12422,10051 C 12430,10052 12437,10052 12445,10053 12535,10062 12625,10070 12716,10079 12723,10080 12731,10081 12738,10082 12828,10097 12917,10112 13006,10127 13014,10128 13021,10130 13029,10131 13117,10152 13205,10172 13293,10193 13300,10195 13308,10197 13315,10199 13402,10225 13488,10251 13575,10277 13582,10280 13589,10282 13597,10285 13681,10317 13766,10349 13851,10380 L 13872,10389 C 13954,10427 14037,10464 14120,10501 14127,10505 14134,10508 14140,10512 14221,10555 14301,10597 14381,10640 14384,10642 14388,10644 14391,10646 14395,10648 14398,10650 14401,10652 14478,10700 14556,10748 14633,10796 14639,10800 14646,10805 14652,10809 14726,10862 14800,10915 14873,10967 14879,10972 14885,10977 14892,10981 14961,11039 15031,11096 15101,11154 L 15119,11169 C 15185,11231 15251,11292 15317,11354 15322,11360 15327,11365 15333,11370 15395,11436 15456,11502 15518,11568 L 15533,11586 C 15591,11656 15648,11726 15706,11795 15710,11802 15715,11808 15720,11814 15772,11887 15825,11961 15878,12035 15882,12041 15887,12048 15891,12054 15939,12131 15987,12209 16035,12286 16037,12289 16039,12292 16041,12296 16043,12299 16045,12303 16047,12306 16090,12386 16132,12466 16175,12547 16179,12553 16182,12560 16186,12567 16223,12650 16260,12733 16298,12815 L 16307,12836 C 16338,12921 16370,13006 16402,13090 16405,13098 16407,13105 16410,13112 16436,13199 16462,13285 16488,13372 16490,13379 16492,13387 16494,13394 16515,13482 16535,13570 16556,13658 16557,13666 16559,13673 16560,13681 16575,13770 16590,13859 16605,13949 16606,13956 16607,13964 16608,13971 16617,14062 16625,14152 16634,14242 16655,14350 16649,14753 16634,14857 Z M 11640,10781 C 11559,10794 11477,10808 11395,10821 11315,10840 11234,10859 11154,10878 11075,10902 10995,10926 10916,10950 10839,10979 10761,11008 10684,11037 10608,11071 10533,11106 10457,11140 10384,11179 10310,11218 10237,11257 10166,11301 10095,11345 10025,11389 9957,11438 9890,11486 9823,11534 9759,11587 9695,11639 9631,11692 9570,11748 9510,11805 9450,11862 9393,11922 9336,11982 9280,12043 9227,12107 9175,12171 9122,12235 9074,12302 9026,12369 8977,12437 8933,12507 8889,12578 8845,12649 8806,12722 8767,12796 8728,12869 8694,12945 8659,13020 8625,13096 8596,13173 8567,13251 8538,13328 8514,13407 8490,13487 8466,13566 8447,13646 8428,13727 8409,13807 8396,13889 8382,13971 8369,14052 8361,14135 8353,14217 8344,14300 8342,14383 8339,14466 8336,14550 8339,14633 8342,14716 8344,14799 8353,14882 8361,14964 8369,15047 8382,15128 8396,15210 8409,15292 8428,15372 8447,15453 8466,15533 8490,15612 8514,15692 8538,15771 8567,15848 8596,15926 8625,16003 8659,16079 8694,16154 8728,16230 8767,16303 8806,16377 8845,16450 8889,16521 8933,16592 8977,16662 9026,16730 9074,16797 9122,16864 9175,16928 9227,16992 9280,17056 9336,17117 9393,17177 9450,17237 9510,17294 9570,17351 9631,17407 9695,17460 9759,17512 9823,17565 9890,17613 9957,17661 10025,17710 10095,17754 10166,17798 10237,17842 10310,17881 10384,17920 10457,17959 10533,17993 10608,18028 10684,18062 10761,18091 10839,18120 10916,18149 10995,18173 11075,18197 11154,18221 11234,18240 11315,18259 11395,18278 11477,18291 11559,18305 11640,18318 11723,18326 11805,18334 11888,18343 11971,18345 12054,18348 12138,18351 12221,18348 12304,18345 12387,18343 12470,18334 12552,18326 12635,18318 12716,18305 12798,18291 12880,18278 12960,18259 13041,18240 13121,18221 13200,18197 13280,18173 13359,18149 13436,18120 13514,18091 13591,18062 13667,18028 13742,17993 13818,17959 13891,17920 13965,17881 14038,17842 14109,17798 14180,17754 14250,17710 14318,17661 14385,17613 14452,17565 14516,17512 14580,17460 14644,17407 14705,17351 14765,17294 14825,17237 14882,17177 14939,17117 14995,17056 15048,16992 15100,16928 15153,16864 15201,16797 15249,16730 15298,16662 15342,16592 15386,16521 15430,16450 15469,16377 15508,16303 15547,16230 15581,16154 15616,16079 15650,16003 15679,15926 15708,15848 15737,15771 15761,15692 15785,15612 15809,15533 15828,15453 15847,15372 15866,15292 15879,15210 15893,15128 15906,15047 15914,14964 15922,14882 15931,14799 15933,14716 15936,14633 15939,14549 15936,14466 15933,14383 15931,14300 15922,14217 15914,14135 15906,14052 15893,13971 15879,13889 15866,13807 15847,13727 15828,13646 15809,13566 15785,13487 15761,13407 15737,13328 15708,13251 15679,13173 15650,13096 15616,13020 15581,12945 15547,12869 15508,12796 15469,12722 15430,12649 15386,12578 15342,12507 15298,12437 15249,12369 15201,12302 15153,12235 15100,12171 15048,12107 14995,12043 14939,11982 14882,11922 14825,11862 14765,11805 14705,11748 14644,11692 14580,11639 14516,11587 14452,11534 14385,11486 14318,11438 14250,11389 14180,11345 14109,11301 14038,11257 13965,11218 13891,11179 13818,11140 13742,11106 13667,11071 13591,11037 13514,11008 13436,10979 13359,10950 13280,10926 13200,10902 13121,10878 13041,10859 12960,10840 12880,10821 12798,10808 12716,10794 12635,10781 12552,10773 12470,10765 12387,10756 12304,10754 12221,10751 12137,10748 12054,10751 11971,10754 11888,10756 11805,10765 11723,10773 11640,10781 Z M 14493,14874 C 14497,14892 14502,14909 14506,14926 14509,14944 14512,14961 14515,14979 14518,14998 14520,15016 14522,15034 14523,15053 14525,15072 14526,15091 L 14526,15148 C 14525,15167 14524,15186 14523,15206 14521,15225 14519,15244 14517,15264 14513,15283 14510,15302 14506,15322 14502,15341 14497,15360 14493,15379 14487,15398 14481,15416 14475,15435 14468,15453 14461,15472 14454,15490 14445,15508 14437,15526 14429,15544 L 14399,15595 C 14388,15611 14377,15628 14365,15644 14353,15659 14340,15675 14328,15690 L 14285,15733 14300,15805 C 14303,15831 14307,15856 14310,15881 14312,15907 14313,15933 14315,15959 14314,15986 14313,16013 14313,16039 14310,16066 14307,16093 14305,16120 14299,16147 14294,16174 14289,16201 14281,16228 14274,16255 14266,16282 L 14251,16321 C 14245,16334 14240,16347 14234,16360 14226,16377 14217,16394 14208,16411 14199,16427 14189,16443 14179,16459 14169,16474 14158,16489 14147,16504 14135,16518 14124,16532 14112,16546 14099,16559 14086,16571 14074,16584 14060,16596 14046,16607 14033,16619 14018,16630 14004,16640 13989,16650 13974,16660 13959,16669 13943,16678 L 13940,16726 C 13938,16742 13937,16758 13935,16775 L 13926,16826 C 13922,16843 13917,16860 13913,16878 13908,16895 13902,16913 13897,16931 L 13876,16985 C 13868,17003 13860,17021 13851,17039 L 13821,17093 C 13812,17107 13803,17122 13794,17136 13784,17149 13774,17163 13764,17177 L 13731,17216 C 13720,17229 13708,17241 13697,17254 13684,17266 13672,17278 13659,17290 13646,17301 13633,17312 13620,17324 13606,17335 13592,17346 13578,17356 13563,17367 13548,17377 13533,17387 L 13437,17444 C 13402,17460 13367,17477 13332,17493 13294,17507 13256,17521 13217,17536 13176,17547 13135,17559 13093,17571 13075,17575 13057,17579 13039,17584 13020,17587 13002,17591 12983,17595 12946,17601 12908,17606 12870,17612 12831,17615 12792,17619 12753,17622 12713,17624 12673,17625 12633,17626 12560,17622 12486,17619 12412,17615 12336,17604 12260,17593 12183,17582 12104,17563 12026,17545 11947,17527 11866,17502 11785,17476 11704,17451 11621,17418 11538,17386 11455,17353 11371,17314 11287,17274 11202,17235 11117,17189 11031,17142 10946,17096 10859,17043 10772,16990 10686,16937 10445,16900 10205,16864 9965,16827 9952,16824 9938,16822 9925,16819 9913,16815 9900,16812 9887,16808 9875,16803 9863,16798 9851,16794 9839,16788 9827,16782 9816,16776 9805,16769 9794,16763 9783,16756 9773,16748 9762,16741 9752,16733 9743,16725 9733,16716 9723,16708 9715,16699 9706,16689 9697,16680 9689,16670 9681,16660 9674,16650 9667,16640 9660,16629 9653,16618 9646,16607 9640,16596 9634,16585 L 9619,16549 C 9615,16537 9611,16525 9607,16512 9604,16500 9601,16487 9598,16474 9596,16461 9595,16448 9593,16435 9592,16421 9592,16408 9591,16394 L 9591,14283 C 9591,14272 9592,14261 9592,14250 9586,14200 9641,14104 9667,14077 9673,14071 9678,14065 9684,14059 L 9702,14041 C 9715,14030 9728,14020 9741,14009 9754,14000 9767,13990 9780,13981 9793,13972 9806,13963 9819,13955 9893,13907 9966,13859 10040,13812 10185,13716 10331,13621 10476,13526 10545,13477 10615,13428 10684,13379 10712,13357 10740,13335 10768,13314 10789,13295 10811,13276 10832,13258 10853,13235 10875,13212 10896,13189 10917,13163 10938,13137 10959,13110 10980,13081 11001,13051 11022,13022 11042,12990 11063,12957 11084,12925 11125,12855 11166,12784 11207,12713 L 11333,12485 C 11388,12384 11444,12282 11500,12181 11530,12130 11560,12079 11589,12028 11621,11977 11652,11927 11684,11876 11694,11860 11705,11845 11715,11829 11727,11814 11738,11800 11749,11785 L 11785,11743 C 11797,11730 11809,11717 11822,11704 11835,11692 11847,11680 11860,11668 11874,11657 11887,11646 11900,11635 L 11942,11605 C 11956,11596 11970,11587 11985,11578 11999,11570 12014,11561 12029,11553 L 12074,11532 C 12089,11526 12104,11520 12120,11514 12135,11509 12151,11504 12167,11499 12182,11495 12198,11491 12214,11487 12230,11484 12247,11482 12263,11479 12279,11477 12295,11475 12312,11474 12328,11473 12345,11473 12361,11472 12376,11472 12390,11473 12404,11473 12418,11475 12432,11476 12446,11477 L 12488,11483 C 12501,11486 12515,11489 12529,11492 12542,11496 12556,11500 12569,11503 12583,11508 12596,11512 12609,11517 12622,11522 12635,11527 12648,11533 12661,11539 12673,11545 12686,11551 12698,11557 12711,11564 12723,11571 12735,11578 12747,11586 12759,11593 12770,11601 12782,11610 12793,11618 12804,11626 12815,11635 12826,11644 12837,11654 12847,11663 12858,11672 12868,11683 12878,11693 12888,11703 12897,11714 12907,11724 12916,11735 12925,11746 12934,11758 12942,11769 12951,11782 12960,11795 12970,11809 12978,11822 12986,11836 12994,11850 13001,11864 13009,11878 13016,11892 13022,11907 13028,11921 13035,11936 13040,11951 13046,11966 13051,11981 13056,11996 13060,12011 13065,12027 13068,12042 13072,12058 13076,12074 13078,12090 13081,12105 13084,12121 13085,12138 13087,12154 13089,12170 13090,12186 13091,12203 13092,12219 13091,12236 13091,12252 13091,12269 13090,12286 13089,12302 13088,12319 13086,12336 13084,12353 13082,12369 L 13073,12420 C 13070,12437 13066,12454 13062,12471 L 13047,12522 C 13022,12600 12642,13487 12655,13512 12659,13536 13526,13516 13962,13518 13982,13518 14001,13519 14021,13520 L 14078,13526 C 14096,13529 14115,13533 14133,13536 14151,13541 14169,13545 14186,13550 14203,13556 14220,13562 14238,13568 14254,13575 14270,13582 14287,13590 14302,13598 14318,13607 14333,13615 14348,13625 14363,13634 14378,13644 14392,13655 14406,13665 14420,13676 L 14459,13712 C 14471,13725 14484,13738 14496,13751 14507,13765 14518,13779 14529,13794 14540,13809 14550,13824 14560,13839 14569,13855 14579,13871 14588,13888 L 14612,13939 C 14619,13957 14626,13975 14633,13994 14639,14012 14645,14031 14650,14050 14655,14069 14660,14088 14664,14107 14667,14127 14671,14146 14674,14166 14676,14185 14678,14205 14680,14225 14681,14244 14682,14264 14683,14284 14682,14303 14682,14323 14682,14343 14680,14363 14679,14382 14677,14402 14674,14421 14672,14441 14669,14460 14665,14479 14662,14499 14658,14518 14653,14537 14648,14555 14644,14574 14638,14593 14632,14611 14626,14629 L 14605,14683 C 14597,14700 14590,14717 14582,14734 14573,14751 14564,14767 14555,14784 14545,14799 14535,14815 14525,14830 14515,14845 14504,14860 14493,14874 Z"/>
   </g>
  </g>
 </g>
</svg>