<?xml version="1.0" encoding="UTF-8"?>
<!DOCTYPE svg PUBLIC "-//W3C//DTD SVG 1.1//EN" "http://www.w3.org/Graphics/SVG/1.1/DTD/svg11.dtd">
<svg version="1.2" width="76.24mm" height="76.24mm" viewBox="8005 20074 7624 7624" preserveAspectRatio="xMidYMid" fill-rule="evenodd" stroke-width="28.222" stroke-linejoin="round" xmlns="http://www.w3.org/2000/svg" xmlns:ooo="http://xml.openoffice.org/svg/export" xmlns:xlink="http://www.w3.org/1999/xlink" xmlns:presentation="http://sun.com/xmlns/staroffice/presentation" xmlns:smil="http://www.w3.org/2001/SMIL20/" xmlns:anim="urn:oasis:names:tc:opendocument:xmlns:animation:1.0" xml:space="preserve">
 <defs class="EmbeddedBulletChars">
  <g id="bullet-char-template-57356" transform="scale(0.00048828125,-0.00048828125)">
   <path d="M 580,1141 L 1163,571 580,0 -4,571 580,1141 Z"/>
  </g>
  <g id="bullet-char-template-57354" transform="scale(0.00048828125,-0.00048828125)">
   <path d="M 8,1128 L 1137,1128 1137,0 8,0 8,1128 Z"/>
  </g>
  <g id="bullet-char-template-10146" transform="scale(0.00048828125,-0.00048828125)">
   <path d="M 174,0 L 602,739 174,1481 1456,739 174,0 Z M 1358,739 L 309,1346 659,739 1358,739 Z"/>
  </g>
  <g id="bullet-char-template-10132" transform="scale(0.00048828125,-0.00048828125)">
   <path d="M 2015,739 L 1276,0 717,0 1260,543 174,543 174,936 1260,936 717,1481 1274,1481 2015,739 Z"/>
  </g>
  <g id="bullet-char-template-10007" transform="scale(0.00048828125,-0.00048828125)">
   <path d="M 0,-2 C -7,14 -16,27 -25,37 L 356,567 C 262,823 215,952 215,954 215,979 228,992 255,992 264,992 276,990 289,987 310,991 331,999 354,1012 L 381,999 492,748 772,1049 836,1024 860,1049 C 881,1039 901,1025 922,1006 886,937 835,863 770,784 769,783 710,716 594,584 L 774,223 C 774,196 753,168 711,139 L 727,119 C 717,90 699,76 672,76 641,76 570,178 457,381 L 164,-76 C 142,-110 111,-127 72,-127 30,-127 9,-110 8,-76 1,-67 -2,-52 -2,-32 -2,-23 -1,-13 0,-2 Z"/>
  </g>
  <g id="bullet-char-template-10004" transform="scale(0.00048828125,-0.00048828125)">
   <path d="M 285,-33 C 182,-33 111,30 74,156 52,228 41,333 41,471 41,549 55,616 82,672 116,743 169,778 240,778 293,778 328,747 346,684 L 369,508 C 377,444 397,411 428,410 L 1163,1116 C 1174,1127 1196,1133 1229,1133 1271,1133 1292,1118 1292,1087 L 1292,965 C 1292,929 1282,901 1262,881 L 442,47 C 390,-6 338,-33 285,-33 Z"/>
  </g>
  <g id="bullet-char-template-9679" transform="scale(0.00048828125,-0.00048828125)">
   <path d="M 813,0 C 632,0 489,54 383,161 276,268 223,411 223,592 223,773 276,916 383,1023 489,1130 632,1184 813,1184 992,1184 1136,1130 1245,1023 1353,916 1407,772 1407,592 1407,412 1353,268 1245,161 1136,54 992,0 813,0 Z"/>
  </g>
  <g id="bullet-char-template-8226" transform="scale(0.00048828125,-0.00048828125)">
   <path d="M 346,457 C 273,457 209,483 155,535 101,586 74,649 74,723 74,796 101,859 155,911 209,963 273,989 346,989 419,989 480,963 531,910 582,859 608,796 608,723 608,648 583,586 532,535 482,483 420,457 346,457 Z"/>
  </g>
  <g id="bullet-char-template-8211" transform="scale(0.00048828125,-0.00048828125)">
   <path d="M -4,459 L 1135,459 1135,606 -4,606 -4,459 Z"/>
  </g>
  <g id="bullet-char-template-61548" transform="scale(0.00048828125,-0.00048828125)">
   <path d="M 173,740 C 173,903 231,1043 346,1159 462,1274 601,1332 765,1332 928,1332 1067,1274 1183,1159 1299,1043 1357,903 1357,740 1357,577 1299,437 1183,322 1067,206 928,148 765,148 601,148 462,206 346,322 231,437 173,577 173,740 Z"/>
  </g>
 </defs>
 <g class="Page">
  <g class="com.sun.star.drawing.PolyPolygonShape">
   <g id="id3">
    <rect class="BoundingBox" stroke="none" fill="none" x="8005" y="20074" width="7624" height="7624"/>
    <path fill="#bdbebe" stroke="none" d="M 8006,20971 L 8006,20971 8008,20912 8014,20854 8023,20796 8037,20739 8054,20683 8074,20628 8098,20575 8126,20523 8157,20473 8191,20425 8228,20380 8268,20337 8311,20297 8356,20260 8404,20226 8454,20195 8506,20167 8559,20143 8614,20123 8670,20106 8727,20092 8785,20083 8843,20077 8902,20075 14730,20075 14731,20075 14790,20077 14848,20083 14906,20092 14963,20106 15019,20123 15074,20143 15127,20167 15179,20195 15229,20226 15277,20260 15322,20297 15365,20337 15405,20380 15442,20425 15476,20473 15507,20523 15535,20575 15559,20628 15579,20683 15596,20739 15610,20796 15619,20854 15625,20912 15627,20971 15627,20971 15627,26799 15627,26800 15625,26859 15619,26917 15610,26975 15596,27032 15579,27088 15559,27143 15535,27196 15507,27248 15476,27298 15442,27346 15405,27391 15365,27434 15322,27474 15277,27511 15229,27545 15179,27576 15127,27604 15074,27628 15019,27648 14963,27665 14906,27679 14848,27688 14790,27694 14731,27696 8902,27696 8902,27696 8843,27694 8785,27688 8727,27679 8670,27665 8614,27648 8559,27628 8506,27604 8454,27576 8404,27545 8356,27511 8311,27474 8268,27434 8228,27391 8191,27346 8157,27298 8126,27248 8098,27196 8074,27143 8054,27088 8037,27032 8023,26975 8014,26917 8008,26859 8006,26800 8006,20971 Z M 11179,22297 L 11177,22360 11171,22422 11161,22483 11147,22544 11128,22603 11107,22661 11081,22718 11051,22774 11018,22827 10982,22877 10942,22925 10900,22971 10854,23013 10806,23053 10756,23089 10703,23122 10647,23152 10590,23178 10532,23199 10473,23218 10412,23232 10351,23242 10289,23248 10226,23250 10163,23248 10101,23242 10040,23232 9979,23218 9920,23199 9862,23178 9805,23152 9750,23122 9696,23089 9646,23053 9598,23013 9552,22971 9510,22925 9470,22877 9434,22827 9401,22774 9371,22718 9345,22661 9324,22603 9305,22544 9291,22483 9281,22422 9275,22360 9273,22297 9275,22234 9281,22172 9291,22111 9305,22050 9324,21991 9345,21933 9371,21876 9401,21821 9434,21767 9470,21717 9510,21669 9552,21623 9598,21581 9646,21541 9696,21505 9750,21472 9805,21442 9862,21416 9920,21395 9979,21376 10040,21362 10101,21352 10163,21346 10226,21344 10289,21346 10351,21352 10412,21362 10473,21376 10532,21395 10590,21416 10647,21442 10703,21472 10756,21505 10806,21541 10854,21581 10900,21623 10942,21669 10982,21717 11018,21767 11051,21821 11081,21876 11107,21933 11128,21991 11147,22050 11161,22111 11171,22172 11177,22234 11179,22297 Z M 14356,22297 L 14354,22360 14348,22422 14338,22483 14324,22544 14305,22603 14284,22661 14258,22718 14228,22774 14195,22827 14159,22877 14119,22925 14077,22971 14031,23013 13983,23053 13933,23089 13880,23122 13824,23152 13767,23178 13709,23199 13650,23218 13589,23232 13528,23242 13466,23248 13403,23250 13340,23248 13278,23242 13217,23232 13156,23218 13097,23199 13039,23178 12982,23152 12927,23122 12873,23089 12823,23053 12775,23013 12729,22971 12687,22925 12647,22877 12611,22827 12578,22774 12548,22718 12522,22661 12501,22603 12482,22544 12468,22483 12458,22422 12452,22360 12450,22297 12452,22234 12458,22172 12468,22111 12482,22050 12501,21991 12522,21933 12548,21876 12578,21821 12611,21767 12647,21717 12687,21669 12729,21623 12775,21581 12823,21541 12873,21505 12927,21472 12982,21442 13039,21416 13097,21395 13156,21376 13217,21362 13278,21352 13340,21346 13403,21344 13466,21346 13528,21352 13589,21362 13650,21376 13709,21395 13767,21416 13824,21442 13880,21472 13933,21505 13983,21541 14031,21581 14077,21623 14119,21669 14159,21717 14195,21767 14228,21821 14258,21876 14284,21933 14305,21991 14324,22050 14338,22111 14348,22172 14354,22234 14356,22297 Z"/>
    <path fill="none" stroke="#bdbebe" d="M 8006,20971 L 8006,20971 8008,20912 8014,20854 8023,20796 8037,20739 8054,20683 8074,20628 8098,20575 8126,20523 8157,20473 8191,20425 8228,20380 8268,20337 8311,20297 8356,20260 8404,20226 8454,20195 8506,20167 8559,20143 8614,20123 8670,20106 8727,20092 8785,20083 8843,20077 8902,20075 14730,20075 14731,20075 14790,20077 14848,20083 14906,20092 14963,20106 15019,20123 15074,20143 15127,20167 15179,20195 15229,20226 15277,20260 15322,20297 15365,20337 15405,20380 15442,20425 15476,20473 15507,20523 15535,20575 15559,20628 15579,20683 15596,20739 15610,20796 15619,20854 15625,20912 15627,20971 15627,20971 15627,26799 15627,26800 15625,26859 15619,26917 15610,26975 15596,27032 15579,27088 15559,27143 15535,27196 15507,27248 15476,27298 15442,27346 15405,27391 15365,27434 15322,27474 15277,27511 15229,27545 15179,27576 15127,27604 15074,27628 15019,27648 14963,27665 14906,27679 14848,27688 14790,27694 14731,27696 8902,27696 8902,27696 8843,27694 8785,27688 8727,27679 8670,27665 8614,27648 8559,27628 8506,27604 8454,27576 8404,27545 8356,27511 8311,27474 8268,27434 8228,27391 8191,27346 8157,27298 8126,27248 8098,27196 8074,27143 8054,27088 8037,27032 8023,26975 8014,26917 8008,26859 8006,26800 8006,20971 Z"/>
    <path fill="none" stroke="#bdbebe" d="M 11179,22297 L 11177,22360 11171,22422 11161,22483 11147,22544 11128,22603 11107,22661 11081,22718 11051,22774 11018,22827 10982,22877 10942,22925 10900,22971 10854,23013 10806,23053 10756,23089 10703,23122 10647,23152 10590,23178 10532,23199 10473,23218 10412,23232 10351,23242 10289,23248 10226,23250 10163,23248 10101,23242 10040,23232 9979,23218 9920,23199 9862,23178 9805,23152 9750,23122 9696,23089 9646,23053 9598,23013 9552,22971 9510,22925 9470,22877 9434,22827 9401,22774 9371,22718 9345,22661 9324,22603 9305,22544 9291,22483 9281,22422 9275,22360 9273,22297 9275,22234 9281,22172 9291,22111 9305,22050 9324,21991 9345,21933 9371,21876 9401,21821 9434,21767 9470,21717 9510,21669 9552,21623 9598,21581 9646,21541 9696,21505 9750,21472 9805,21442 9862,21416 9920,21395 9979,21376 10040,21362 10101,21352 10163,21346 10226,21344 10289,21346 10351,21352 10412,21362 10473,21376 10532,21395 10590,21416 10647,21442 10703,21472 10756,21505 10806,21541 10854,21581 10900,21623 10942,21669 10982,21717 11018,21767 11051,21821 11081,21876 11107,21933 11128,21991 11147,22050 11161,22111 11171,22172 11177,22234 11179,22297 Z"/>
    <path fill="none" stroke="#bdbebe" d="M 14356,22297 L 14354,22360 14348,22422 14338,22483 14324,22544 14305,22603 14284,22661 14258,22718 14228,22774 14195,22827 14159,22877 14119,22925 14077,22971 14031,23013 13983,23053 13933,23089 13880,23122 13824,23152 13767,23178 13709,23199 13650,23218 13589,23232 13528,23242 13466,23248 13403,23250 13340,23248 13278,23242 13217,23232 13156,23218 13097,23199 13039,23178 12982,23152 12927,23122 12873,23089 12823,23053 12775,23013 12729,22971 12687,22925 12647,22877 12611,22827 12578,22774 12548,22718 12522,22661 12501,22603 12482,22544 12468,22483 12458,22422 12452,22360 12450,22297 12452,22234 12458,22172 12468,22111 12482,22050 12501,21991 12522,21933 12548,21876 12578,21821 12611,21767 12647,21717 12687,21669 12729,21623 12775,21581 12823,21541 12873,21505 12927,21472 12982,21442 13039,21416 13097,21395 13156,21376 13217,21362 13278,21352 13340,21346 13403,21344 13466,21346 13528,21352 13589,21362 13650,21376 13709,21395 13767,21416 13824,21442 13880,21472 13933,21505 13983,21541 14031,21581 14077,21623 14119,21669 14159,21717 14195,21767 14228,21821 14258,21876 14284,21933 14305,21991 14324,22050 14338,22111 14348,22172 14354,22234 14356,22297 Z"/>
   </g>
  </g>
 </g>
</svg>