<svg xmlns="http://www.w3.org/2000/svg" viewBox="0 0 175.63 191"><defs><style>.cls-1{fill:none;}.cls-2{fill:#bdbebe;fill-rule:evenodd;}</style></defs><g id="Layer_2" data-name="Layer 2"><g id="Layer_1-2" data-name="Layer 1"><g id="container-id1"><g id="id1"><g id="id7"><rect class="cls-1" width="175.63" height="191"/><path class="cls-2" d="M156.56,33.85h.05a38,38,0,0,1,19,33v57.32h0a37.84,37.84,0,0,1-5.08,19,38.86,38.86,0,0,1-13.92,13.95h-.05l-49.69,28.71h0a37.57,37.57,0,0,1-37.9,0L19.08,157.1h0L19,157A38.08,38.08,0,0,1,0,124.16V66.84H0a38.23,38.23,0,0,1,19-33h0L68.77,5.13h0c.06-.08.06-.08.14-.08A37.25,37.25,0,0,1,85.58,0h4.53a37.37,37.37,0,0,1,16.7,5.05s.06,0,.06.08Zm-81-15.74L27,46.12h0A24.7,24.7,0,0,0,14.68,67.49h0v56h0A24.8,24.8,0,0,0,27,144.82l48.53,28h0a24.22,24.22,0,0,0,12.33,3.26,23.77,23.77,0,0,0,12.22-3.26h0l48.53-28h0a24.8,24.8,0,0,0,9-9,24.41,24.41,0,0,0,3.29-12.33h0v-56h0a24.59,24.59,0,0,0-12.3-21.37h0l-48.53-28h0A23.81,23.81,0,0,0,87.87,14.8,24.26,24.26,0,0,0,75.54,18.11Zm6.95,137.77V140.77c-1.48-.06-3-.23-4.42-.28s-2.84-.23-4.2-.37-2.66-.37-3.94-.57-2.47-.51-3.71-.74-2.38-.48-3.55-.76l-3.23-1.11c-1.07-.37-2.1-.79-3.17-1.16s-2.1-.94-3.12-1.45V114.55c1,.51,2.1,1,3.12,1.44l3.26,1.53c1.22.43,2.38.85,3.6,1.31l3.88,1.3c1.33.37,2.69.71,4,1.08s2.66.65,3.94.93,2.55.35,3.77.6,2.52.2,3.77.34c19.1.79,32-12.93,3.8-23.33-1.73-.79-16.16-5.89-17.52-6.63-1.16-.74-2.38-1.45-3.54-2.16-.52-.36-1.08-.7-1.59-1.07s-1-.83-1.45-1.17-.88-.79-1.3-1.24-.88-.8-1.31-1.17-.7-.79-1.07-1.19-.65-.85-.94-1.3-.65-.88-1-1.33-.48-.82-.71-1.28-.48-.93-.71-1.44-.37-.94-.51-1.39-.37-1-.51-1.5-.28-1.08-.43-1.59-.19-1.08-.28-1.65-.17-1.1-.23-1.67-.08-1.16-.14-1.73V66.9c0-.43.06-.91.06-1.36s.08-.94.14-1.39l.26-1.28c.11-.42.19-.88.34-1.3s.22-.8.37-1.22.28-.79.42-1.22l.43-1.08c.22-.36.36-.79.59-1.16s.34-.71.57-1.1l.65-1.08c.28-.37.48-.65.79-1l.8-1c.28-.32.56-.66.85-.94C60,51.19,60.6,50.6,61.23,50s1.44-1.1,2.21-1.59,1.5-1,2.3-1.53l2.35-1.3c.88-.37,1.67-.65,2.55-1s1.87-.65,2.81-1,1.87-.48,2.83-.71l3-.65,3.18-.42V30.39h9.38V41.67c1.28,0,2.58,0,3.88.11s2.44.37,3.69.51,2.47.37,3.68.51l3.6.85c1.17.32,2.41.68,3.55,1s2.24.71,3.4,1.07L117,47l3.23,1.53c-2.16,5.81-4.23,11.68-6.41,17.52-.93-.43-2-.8-2.89-1.22s-1.79-.8-2.75-1.16-1.87-.63-2.83-.94-1.88-.51-2.78-.74l-2.84-.62c-.88-.17-1.78-.28-2.66-.45s-1.73-.34-2.61-.51-1.7-.2-2.58-.29c-26-3.82-31.35,14.32-13.1,21,7.32,2,25.2,6.72,27.53,7.88.57.31,1.08.65,1.67.93s1.08.66,1.65,1,1,.63,1.5,1,1,.77,1.39,1.14.93.74,1.36,1.1,1,.85,1.36,1.28.79.79,1.16,1.22.74,1,1.11,1.44c.19.23.36.51.56.74s.37.43.51.65.2.48.37.74l.43.82a7.17,7.17,0,0,0,.45.82,8.86,8.86,0,0,0,.34.85l.23.88c.14.29.2.48.34.8s.17.65.22.93.15.65.23.94c.14.65.2,1.36.34,2s.17,1.39.23,2.1,0,1.53,0,2.24v1.39c0,.42,0,.93-.11,1.36s-.08.88-.17,1.27-.14,1-.2,1.39-.22.88-.31,1.31-.2.79-.28,1.16-.29.79-.43,1.22-.2.79-.37,1.24-.36.71-.51,1.08-.36.79-.56,1.13-.37.74-.57,1.08-.51.74-.74,1.08l-.65,1.1c-.28.29-.57.66-.88.94l-1.7,2c-.65.56-1.36,1.16-2,1.72s-1.45,1.11-2.15,1.59-1.68,1-2.47,1.5-1.79.8-2.66,1.25-1.93.63-2.9,1-2.09.68-3.17,1-2.24.42-3.4.62l-3.66.46v15.39Z"/></g></g></g></g></g></svg>